<svg width="82" height="82" viewBox="0 0 82 82" fill="none" xmlns="http://www.w3.org/2000/svg">
<path opacity="0.16" d="M41 34.1666C46.6609 34.1666 51.25 29.5775 51.25 23.9166C51.25 18.2556 46.6609 13.6666 41 13.6666C35.3391 13.6666 30.75 18.2556 30.75 23.9166C30.75 29.5775 35.3391 34.1666 41 34.1666Z" fill="black"/>
<path d="M41 34.1666C46.6609 34.1666 51.25 29.5775 51.25 23.9166C51.25 18.2556 46.6609 13.6666 41 13.6666C35.3391 13.6666 30.75 18.2556 30.75 23.9166C30.75 29.5775 35.3391 34.1666 41 34.1666Z" stroke="white" stroke-width="4.70741"/>
<path d="M61.5001 68.3331C65.274 68.3331 68.3334 65.2737 68.3334 61.4998C68.3334 57.7258 65.274 54.6664 61.5001 54.6664C57.7261 54.6664 54.6667 57.7258 54.6667 61.4998C54.6667 65.2737 57.7261 68.3331 61.5001 68.3331Z" stroke="white" stroke-width="4.70741" stroke-linecap="round" stroke-linejoin="round"/>
<path d="M42.1651 68.3333H27.3333C25.521 68.3333 23.7829 67.6133 22.5014 66.3318C21.2199 65.0503 20.5 63.3122 20.5 61.4999C20.5 57.8753 21.9399 54.3991 24.5029 51.8361C27.0659 49.2731 30.542 47.8333 34.1667 47.8333H46.2207M68.3333 61.4999V37.5833L75.1667 44.4166" stroke="white" stroke-width="4.70741" stroke-linecap="round" stroke-linejoin="round"/>
</svg>
